<svg width="178" height="178" viewBox="0 0 178 178" fill="none"
    xmlns="http://www.w3.org/2000/svg">
    <g clip-path="url(#clip0_641_1251)">
        <path d="M178 89C178 107.216 172.411 124.993 161.986 139.931C151.562 154.869 136.805 166.249 119.708 172.534C102.611 178.82 83.997 179.707 66.3794 175.077C48.7618 170.448 32.989 160.523 21.1908 146.645C9.39254 132.766 2.137 115.601 0.403787 97.4682C-1.32942 79.3351 2.54318 61.1068 11.4987 45.2444C20.4542 29.3821 34.0614 16.6497 50.483 8.76635C66.9046 0.882994 85.3497 -1.77164 103.328 1.16087L89 89H178Z" fill="#09233e"/>
        <circle cx="54.5" cy="50.5" r="11.5" fill="white"/>
        <circle cx="46.5" cy="118.5" r="11.5" fill="white"/>
        <circle cx="112.5" cy="134.5" r="11.5" fill="white"/>
    </g>
</svg>
