<svg xmlns="http://www.w3.org/2000/svg"
    xmlns:xlink="http://www.w3.org/1999/xlink" version="1.1" x="0px" y="0px" viewBox="0 0 100 100" enable-background="new 0 0 100 100" xml:space="preserve">
    <path d="M71,66c-4-1-6.5-6.5-2-11s7-7,7-7c7.422-7.422,6.337-14.798,4.23-19.566c-1.332-3.016-3.461-5.603-5.998-7.708  C58.631,7.78,35.106,9.239,21.29,25.102c-12.336,14.164-12.336,35.632,0,49.796C35.909,91.684,61.4,92.34,76.87,76.87  C78.892,74.955,79.964,67.494,71,66z M20.595,40.884c0-3.314,2.686-6,6-6s6,2.686,6,6c0,3.314-2.686,6-6,6  S20.595,44.197,20.595,40.884z M30,68c-3.314,0-6-2.686-6-6s2.686-6,6-6s6,2.686,6,6S33.314,68,30,68z M42,31.728  c-3.314,0-6-2.686-6-6s2.686-6,6-6s6,2.686,6,6S45.314,31.728,42,31.728z M56.693,28.884c0-3.314,2.687-6,6-6c3.314,0,6,2.686,6,6  c0,3.314-2.686,6-6,6C59.38,34.884,56.693,32.197,56.693,28.884z"/>
</svg>