<?xml version="1.0" encoding="UTF-8"?>
<svg version="1.1" viewBox="0 0 1200 1200"
    xmlns="http://www.w3.org/2000/svg">
    <g>
        <path d="m600 682.2c93.887 0 170.3-76.391 170.3-170.3 0-93.887-76.414-170.28-170.3-170.28-93.887 0-170.28 76.391-170.28 170.28 0 93.914 76.395 170.3 170.28 170.3z"/>
        <path d="m703.73 733.49h-207.48c-73.922 0-134.06 60.145-134.06 134.06v160.41h121.59v-147.24c0-13.273 10.754-24 24-24 13.246 0 24 10.727 24 24v147.24h136.41v-147.24c0-13.273 10.727-24 24-24 13.273 0 24 10.727 24 24v147.24h121.59v-160.41c0.023438-73.941-60.121-134.06-134.04-134.06z"/>
        <path d="m193.56 172.05c-80.254 0-145.56 65.305-145.56 145.59s65.305 145.56 145.56 145.56c80.281 0 145.59-65.305 145.59-145.56 0.023438-80.281-65.281-145.59-145.59-145.59zm84.578 120.19-77.375 83.426c-0.16797 0.19141-0.43359 0.23828-0.60156 0.43359-2.0898 2.1133-4.4414 3.793-7.0547 4.9688-0.48047 0.21484-0.96094 0.35938-1.4414 0.52734-2.7109 1.0312-5.543 1.7266-8.4492 1.7266h-0.023438c-2.6406 0-5.2812-0.55078-7.8242-1.4648-0.81641-0.28906-1.5117-0.71875-2.3047-1.0781-1.1523-0.50391-2.3281-0.86328-3.3828-1.5859l-56.52-38.352c-10.969-7.4414-13.824-22.367-6.3828-33.336s22.344-13.824 33.336-6.3828l39.48 26.785 63.359-68.305c9.0234-9.7188 24.215-10.273 33.91-1.2734 9.7227 9.0234 10.297 24.191 1.2734 33.91z"/>
        <path d="m1006.4 172.05c-80.281 0-145.59 65.305-145.59 145.59s65.328 145.56 145.59 145.56c80.258 0 145.59-65.277 145.59-145.56s-65.328-145.59-145.59-145.59zm65.09 176.74c9.3828 9.3828 9.3828 24.574 0 33.961-4.6797 4.6797-10.824 7.0078-16.969 7.0078-6.1445 0-12.289-2.3516-16.969-7.0312l-31.152-31.176-31.176 31.176c-4.6797 4.6797-10.824 7.0312-16.969 7.0312s-12.289-2.3516-16.969-7.0312c-9.3828-9.3828-9.3828-24.551 0-33.938l31.176-31.176-31.129-31.152c-9.3828-9.3828-9.3828-24.574 0-33.961 9.3828-9.3594 24.551-9.3594 33.938 0l31.129 31.152 31.152-31.152c9.3828-9.3828 24.551-9.3828 33.938 0 9.3828 9.3828 9.3828 24.551 0 33.938l-31.152 31.152z"/>
    </g>
</svg>
