<svg xmlns="http://www.w3.org/2000/svg"
    xmlns:xlink="http://www.w3.org/1999/xlink" version="1.1" x="0px" y="0px" viewBox="0 7 50 50" enable-background="new 0 0 50 50" xml:space="preserve">
    <path d="M25,28.425c3.912,0,7.096-3.183,7.096-7.096c0-3.912-3.184-7.095-7.096-7.095s-7.095,3.183-7.095,7.095  C17.905,25.242,21.088,28.425,25,28.425z"/>
    <path d="M29.322,30.562h-8.645c-3.08,0-5.586,2.506-5.586,5.586v6.684h5.066v-6.135c0-0.553,0.448-1,1-1s1,0.447,1,1v6.135h5.684  v-6.135c0-0.553,0.447-1,1-1s1,0.447,1,1v6.135h5.066v-6.684C34.908,33.067,32.402,30.562,29.322,30.562z"/>
    <path d="M8.065,7.169C4.721,7.169,2,9.89,2,13.235c0,3.345,2.721,6.065,6.065,6.065c3.345,0,6.066-2.721,6.066-6.065  C14.132,9.89,11.411,7.169,8.065,7.169z M11.589,12.177l-3.224,3.476c-0.007,0.008-0.018,0.01-0.025,0.018  c-0.087,0.088-0.185,0.158-0.294,0.207c-0.02,0.009-0.04,0.015-0.06,0.022c-0.113,0.043-0.231,0.072-0.352,0.072  c0,0-0.001,0-0.001,0c0,0,0,0,0,0h0c-0.11,0-0.22-0.023-0.326-0.061c-0.034-0.012-0.063-0.03-0.096-0.045  C7.163,15.845,7.114,15.83,7.07,15.8l-2.355-1.598c-0.457-0.31-0.576-0.932-0.266-1.389s0.931-0.576,1.389-0.266l1.645,1.116  l2.64-2.846c0.376-0.405,1.009-0.428,1.413-0.053C11.941,11.14,11.965,11.772,11.589,12.177z"/>
    <path d="M41.934,7.169c-3.345,0-6.066,2.721-6.066,6.066c0,3.345,2.722,6.065,6.066,6.065S48,16.58,48,13.235  C48,9.89,45.278,7.169,41.934,7.169z M44.646,14.533c0.391,0.391,0.391,1.024,0,1.415c-0.195,0.195-0.451,0.292-0.707,0.292  s-0.512-0.098-0.707-0.293l-1.298-1.299l-1.299,1.299c-0.195,0.195-0.451,0.293-0.707,0.293s-0.512-0.098-0.707-0.293  c-0.391-0.391-0.391-1.023,0-1.414l1.299-1.299l-1.297-1.298c-0.391-0.391-0.391-1.024,0-1.415c0.391-0.39,1.023-0.39,1.414,0  l1.297,1.298l1.298-1.298c0.391-0.391,1.023-0.391,1.414,0s0.391,1.023,0,1.414l-1.298,1.298L44.646,14.533z"/>
</svg>